<svg width="250" height="250" viewBox="0 0 250 250" fill="none" xmlns="http://www.w3.org/2000/svg">
<path fill-rule="evenodd" clip-rule="evenodd" d="M125 250C194.036 250 250 194.036 250 125C250 55.9644 194.036 0 125 0C55.9644 0 0 55.9644 0 125C0 194.036 55.9644 250 125 250Z" fill="white"/>
<mask id="mask0" style="mask-type:alpha" maskUnits="userSpaceOnUse" x="0" y="0" width="250" height="250">
<path fill-rule="evenodd" clip-rule="evenodd" d="M125 250C194.036 250 250 194.036 250 125C250 55.9644 194.036 0 125 0C55.9644 0 0 55.9644 0 125C0 194.036 55.9644 250 125 250Z" fill="white"/>
</mask>
<g mask="url(#mask0)">
<path d="M48.7288 80.8474C48.7288 64.2789 62.1603 50.8474 78.7288 50.8474H171.271C187.84 50.8474 201.271 64.2789 201.271 80.8474V252.119H48.7288V80.8474Z" fill="white" stroke="#FFB328" stroke-width="2"/>
<rect x="56.1441" y="91.1016" width="136.653" height="161.017" fill="white"/>
<rect x="56.6441" y="91.6016" width="135.653" height="160.017" stroke="#3766BC" stroke-opacity="0.1"/>
<rect x="66.7373" y="101.695" width="42.3729" height="42.3729" rx="3" fill="#CDFAB8"/>
<rect opacity="0.6" x="119.703" y="112.288" width="62.5" height="4.23729" rx="2.11864" fill="#7E7E7E"/>
<rect opacity="0.6" x="119.703" y="120.763" width="45.5508" height="4.23729" rx="2.11864" fill="#7E7E7E"/>
<rect opacity="0.34" x="119.703" y="131.356" width="18.0085" height="4.23729" rx="2.11864" fill="#B2B2B2"/>
<rect x="66.7373" y="154.661" width="42.3729" height="42.3729" rx="3" fill="#B8EAFA"/>
<rect opacity="0.6" x="119.703" y="165.254" width="62.5" height="4.23729" rx="2.11864" fill="#7E7E7E"/>
<rect opacity="0.6" x="119.703" y="173.729" width="45.5508" height="4.23729" rx="2.11864" fill="#7E7E7E"/>
<rect opacity="0.34" x="119.703" y="184.322" width="18.0085" height="4.23729" rx="2.11864" fill="#B2B2B2"/>
<rect x="66.7373" y="207.627" width="42.3729" height="42.3729" rx="3" fill="#FAB8F7"/>
<rect opacity="0.6" x="119.703" y="218.22" width="62.5" height="4.23729" rx="2.11864" fill="#7E7E7E"/>
<rect opacity="0.6" x="119.703" y="226.695" width="45.5508" height="4.23729" rx="2.11864" fill="#7E7E7E"/>
<rect opacity="0.34" x="119.703" y="237.288" width="18.0085" height="4.23729" rx="2.11864" fill="#B2B2B2"/>
</g>
</svg>
