<svg width="24" height="24" viewBox="0 0 24 24" fill="none" xmlns="http://www.w3.org/2000/svg">
<path d="M12 24C18.6274 24 24 18.6274 24 12C24 5.37258 18.6274 0 12 0C5.37258 0 0 5.37258 0 12C0 18.6274 5.37258 24 12 24Z" fill="white"/>
<path fill-rule="evenodd" clip-rule="evenodd" d="M15 5.10817V7.48798H13.728C12.7315 7.48798 12.5451 8.01983 12.5451 8.78606V10.4898H14.919L14.603 13.1581H12.5451V20H10.066V13.1581H8V10.4898H10.066V8.52464C10.066 6.24399 11.3218 5 13.1528 5C14.0278 5 14.7813 5.07212 15 5.10817Z" fill="#3B5998"/>
</svg>
